<?xml version="1.0" standalone="no"?>
<!DOCTYPE svg PUBLIC "-//W3C//DTD SVG 20010904//EN"
 "http://www.w3.org/TR/2001/REC-SVG-20010904/DTD/svg10.dtd">
<svg version="1.0" xmlns="http://www.w3.org/2000/svg"
 width="512.000000pt" height="512.000000pt" viewBox="0 0 512.000000 512.000000"
 preserveAspectRatio="xMidYMid meet">

<g transform="translate(0.000000,512.000000) scale(0.100000,-0.100000)"
fill="#ffffff" stroke="none">
<path d="M4 5094 c3 -16 69 -461 147 -989 78 -528 144 -962 146 -965 2 -2 119
112 261 253 141 141 262 257 267 257 6 0 199 -189 430 -420 l420 -420 317 317
318 318 -420 420 c-231 231 -420 425 -420 430 0 5 116 126 257 267 141 142
255 259 253 261 -3 2 -437 68 -965 146 -528 78 -973 144 -989 147 -26 6 -28 4
-22 -22z"/>
<path d="M4120 4973 c-536 -80 -977 -148 -980 -150 -2 -2 112 -119 253 -261
141 -141 257 -262 257 -267 0 -6 -189 -199 -420 -430 l-420 -420 317 -317 318
-318 420 420 c231 231 425 420 430 420 5 0 126 -116 267 -257 142 -141 259
-255 261 -253 2 3 68 437 146 965 78 528 144 972 147 988 4 19 2 27 -8 26 -7
0 -452 -66 -988 -146z"/>
<path d="M1255 1890 c-231 -231 -424 -420 -430 -420 -5 0 -126 116 -267 257
-142 141 -259 255 -261 253 -5 -6 -297 -1973 -294 -1977 4 -3 1971 289 1977
294 2 2 -112 119 -253 261 -141 141 -257 262 -257 267 0 5 189 199 420 430
l420 420 -318 318 -317 317 -420 -420z"/>
<path d="M3127 1992 l-317 -317 420 -420 c231 -231 420 -424 420 -430 0 -5
-116 -126 -257 -267 -141 -142 -255 -259 -253 -261 6 -5 1973 -297 1977 -294
3 4 -289 1971 -294 1977 -2 2 -119 -112 -261 -253 -141 -141 -262 -257 -267
-257 -5 0 -199 189 -430 420 l-420 420 -318 -318z"/>
</g>
</svg>
