<?xml version="1.0" standalone="no"?>
<!DOCTYPE svg PUBLIC "-//W3C//DTD SVG 20010904//EN"
 "http://www.w3.org/TR/2001/REC-SVG-20010904/DTD/svg10.dtd">
<svg version="1.0" xmlns="http://www.w3.org/2000/svg"
 width="512.000000pt" height="512.000000pt" viewBox="0 0 512.000000 512.000000"
 preserveAspectRatio="xMidYMid meet">

<g transform="translate(0.000000,512.000000) scale(0.100000,-0.100000)"
fill="#ffffff" stroke="none">
<path d="M337 4742 l-337 -337 365 -365 365 -364 -234 -236 c-197 -198 -235
-241 -241 -272 -9 -46 1 -90 27 -123 45 -57 9 -54 901 -67 814 -11 825 -11
862 8 24 12 46 35 58 58 20 38 20 49 8 859 -9 637 -15 828 -25 852 -16 38 -58
70 -103 80 -69 14 -95 -5 -341 -249 l-232 -231 -363 363 c-199 199 -364 362
-367 362 -3 0 -157 -152 -343 -338z"/>
<path d="M4070 4715 l-364 -364 -236 233 c-197 196 -242 235 -272 241 -46 9
-90 -1 -123 -27 -57 -44 -54 -9 -67 -906 l-12 -829 22 -35 c12 -20 39 -44 59
-53 35 -17 81 -17 856 -6 450 7 826 15 835 18 40 15 72 46 88 88 32 85 22 100
-239 363 l-231 232 364 365 365 365 -340 340 -340 340 -365 -365z"/>
<path d="M930 2149 c-294 -5 -549 -11 -567 -14 -73 -13 -123 -92 -108 -172 6
-33 39 -70 241 -273 l234 -236 -365 -364 -365 -365 342 -342 343 -343 365 365
365 365 225 -225 c124 -124 240 -232 259 -241 41 -20 103 -14 140 13 62 45 59
12 72 893 7 443 9 822 5 841 -4 21 -20 49 -42 70 l-35 34 -287 1 c-158 1 -528
-3 -822 -7z"/>
<path d="M3063 2129 c-17 -11 -39 -36 -49 -57 -16 -35 -17 -81 -5 -856 9 -639
15 -826 25 -851 29 -68 122 -103 187 -70 19 9 136 119 262 243 l227 227 365
-365 365 -365 340 340 340 340 -365 365 -365 365 225 225 c124 124 232 240
241 259 20 41 14 103 -13 140 -44 60 -28 59 -747 70 -949 16 -994 15 -1033
-10z"/>
</g>
</svg>
