<?xml version="1.0" standalone="no"?>
<!DOCTYPE svg PUBLIC "-//W3C//DTD SVG 20010904//EN"
 "http://www.w3.org/TR/2001/REC-SVG-20010904/DTD/svg10.dtd">
<svg version="1.0" xmlns="http://www.w3.org/2000/svg"
 width="1600.000000pt" height="1600.000000pt" viewBox="0 0 1600.000000 1600.000000"
 preserveAspectRatio="xMidYMid meet">
<metadata>
Created by potrace 1.16, written by Peter Selinger 2001-2019
</metadata>
<g transform="translate(0.000000,1600.000000) scale(0.100000,-0.100000)"
fill="#B5B5BD" stroke="none">
<path d="M7820 14985 c-36 -8 -90 -24 -120 -36 -61 -25 -5662 -3159 -5734
-3209 -134 -92 -237 -240 -283 -410 -17 -62 -18 -228 -18 -3320 l0 -3255 23
-80 c13 -43 39 -110 59 -148 48 -91 165 -214 256 -271 128 -79 5620 -3158
5692 -3191 188 -87 422 -87 610 0 72 33 5564 3112 5692 3191 91 57 208 180
256 271 20 38 46 105 59 148 l23 80 0 3240 c0 3149 -1 3242 -19 3315 -23 90
-54 164 -95 223 -52 76 -168 193 -233 235 -68 44 -5526 3092 -5647 3153 -142
73 -355 99 -521 64z m655 -2340 c1308 -141 2473 -800 3255 -1840 87 -116 248
-354 278 -411 11 -20 -37 -49 -997 -598 -554 -317 -1012 -576 -1017 -576 -5 0
-27 28 -49 62 -330 513 -902 893 -1515 1008 -922 172 -1846 -218 -2369 -1000
-574 -857 -510 -1995 157 -2790 362 -432 873 -718 1442 -807 161 -25 519 -25
680 0 665 105 1234 468 1608 1029 l65 98 87 -48 c48 -26 508 -279 1023 -562
l936 -515 -31 -55 c-17 -30 -73 -118 -123 -195 -1286 -1962 -3814 -2665 -5930
-1651 -1357 651 -2338 1957 -2580 3436 -48 296 -59 433 -59 770 0 430 33 715
129 1108 302 1240 1108 2308 2225 2949 611 351 1338 565 2060 607 133 8 590
-4 725 -19z m2525 -3975 l0 -330 333 -2 332 -3 0 -335 0 -335 -332 -3 -333 -2
0 -330 0 -330 -335 0 -335 0 0 330 0 330 -332 2 -333 3 0 335 0 335 333 3 332
2 0 330 0 330 335 0 335 0 0 -330z m2340 0 l0 -330 330 0 330 0 0 -340 0 -340
-330 0 -330 0 0 -330 0 -330 -340 0 -340 0 0 330 0 330 -330 0 -330 0 0 340 0
340 330 0 330 0 0 330 0 330 340 0 340 0 0 -330z"/>
</g>
</svg>
